<svg width="34" height="30" viewBox="0 0 34 30" fill="none" xmlns="http://www.w3.org/2000/svg">
<path d="M33.9996 5.19331C32.4287 2.96516 29.3052 2.37832 27.0612 3.93808L15.5225 11.9605L11.3269 9.04321C12.889 6.36488 12.1544 2.89876 9.55313 1.0903C6.80645 -0.818529 3.02165 -0.156291 1.09815 2.57081C-0.824257 5.29791 -0.157621 9.0568 2.58906 10.9671C4.47413 12.2773 6.84843 12.3759 8.77329 11.4274L13.9124 15.0004L8.77366 18.5727C6.8487 17.6249 4.4745 17.7232 2.58979 19.0333C-0.157256 20.9432 -0.823892 24.7017 1.09888 27.4288C3.02238 30.1563 6.80718 30.8186 9.5535 28.9097C12.1544 27.1014 12.889 23.6355 11.3273 20.9568L15.5229 18.0395L27.0615 26.0617C29.3056 27.6222 32.429 27.0346 34 24.8064L19.895 15.0001L33.9996 5.19331ZM6.08471 9.1671C4.34654 9.1671 2.93741 7.76769 2.93741 6.04216C2.93741 4.31627 4.34654 2.91685 6.08471 2.91685C7.82325 2.91685 9.23165 4.31627 9.23165 6.04216C9.23165 7.76769 7.82325 9.1671 6.08471 9.1671ZM6.08471 27.0836C4.34654 27.0836 2.93741 25.6846 2.93741 23.9587C2.93741 22.2328 4.34654 20.8337 6.08471 20.8337C7.82325 20.8337 9.23165 22.2328 9.23165 23.9587C9.23165 25.6846 7.82325 27.0836 6.08471 27.0836Z" fill="black"/>
</svg>
