<?xml version="1.0" encoding="UTF-8"?><svg id="a" xmlns="http://www.w3.org/2000/svg" viewBox="0 0 130.36 112.51"><defs><style>.b,.c{fill:#f59eb2;}.c{opacity:.2;}</style></defs><path class="b" d="m14.38,48.67c.29,7.25.06,11.94-.6,17.43-.74,6.16-1.5,7.76-1.5,12.95,0,3.25,0,6.19.93,9.62,2.21,8.09,7.97,12.99,10.4,15.05,2.98,2.53,8.41,6.32,16.14,7.91,2.25.46,13.42,2.77,23.43-3.1,1.44-.84.44-.44,11.48-10.86,7.9-7.46,10.72-9.84,13.97-12.26,3.55-2.65,6.77-4.71,8.69-5.9,6.81-4.21,12.3-5.6,14.15-8.59.49-.8,1.32-2.13,1.01-3.83-.04-.2-.38-2.02-1.78-2.8-1.31-.73-2.83-.26-6.76,1.5-4.67,2.1-6.11,3.05-9.27,4.25-3.51,1.33-5.89,2.21-7.14,1.09-1.1-1-.88-3.11-.47-4.34.59-1.79,1.83-2.53,4.34-4.5,3.42-2.68,2.03-2.02,6.67-5.74,1.79-1.44,3.39-2.63,6.52-4.97,2.97-2.21,6.46-4.77,6.52-4.81.38-.28,1.72-1.31,2.64-2.79.69-1.11,1.45-2.35,1.14-3.87-.26-1.29-1.23-2.57-2.54-3.01-1.48-.5-2.87.26-5.58,1.76-1.26.7-1.57.9-4.46,2.87-.73.5-1.64,1.08-2.83,1.78-1.55.91-8.36,5.5-12.78,8.24-3.71,2.3-5.15,2.71-6.63,2.4-.33-.07-2.19-.49-2.68-1.83-.49-1.34.66-2.81,2.12-4.8,1.76-2.4,3.31-4.95,5.08-7.34,2.76-3.72,1.83-2.94,5.93-8.75,1.8-2.56,3.34-5.3,5.08-7.9,1.16-1.73,2.04-2.99,1.83-4.66-.19-1.59-1.32-3.17-2.82-3.81-2.84-1.21-6.07,1.3-7.48,2.4-1.57,1.22-2.29,2.29-4.09,4.8-3.45,4.8,1.6-2.49-6.49,8.75-1.1,1.52-3.42,4.76-6.63,8.61-.22.26-1.68,2.21-4.23,3.81-1.69,1.06-2.56,1.16-3.05,1.16-1.49.02-3.23-.74-4.01-2.2-.26-.48-.66-1.5.15-4.47.83-3.07,2.18-5.18,2.4-5.65,1.8-3.71,4.18-8.62,5.79-12.28,1.73-3.96,2.51-5.58,3.1-7.9.85-3.32,1.44-5.77.04-7.49-1.26-1.55-3.79-2.07-5.68-1.4-2.29.8-3.18,3.16-4.44,6.02-1.75,3.97-4.26,7.59-5.97,11.58,0,0-5.1,11.88-14.15,26.57,0,0-1.72,2.8-5.79,6.07-1.83,1.47-2.68,1.81-3.53,1.69-2.55-.34-3.78-4.62-3.95-5.22-.3-1.05-.43-2.04-.14-7.06.33-5.73.58-6.03.28-7.62-.34-1.83-.99-5.28-3.95-6.77-2.44-1.23-5.86-.9-7.62.99-1.37,1.47-1.24,3.36-1.07,7.49.15,3.91.14,7.82.3,11.72Z"/><path class="c" d="m25.55,40.49c-1.54,7.09-2.96,11.57-4.98,16.72-2.27,5.78-3.41,7.14-4.71,12.15-.82,3.14-1.57,5.99-1.52,9.54.1,8.38,4.44,14.58,6.27,17.19,2.24,3.2,6.55,8.24,13.62,11.73,2.06,1.02,12.29,6.06,23.46,2.9,1.61-.45.53-.31,13.85-7.62,9.53-5.23,12.86-6.82,16.6-8.34,4.1-1.67,7.74-2.85,9.9-3.52,7.65-2.36,13.32-2.31,15.86-4.74.68-.65,1.82-1.73,1.95-3.45.02-.21.14-2.05-1.01-3.16-1.08-1.03-2.67-.97-6.92-.25-5.05.85-6.68,1.41-10.04,1.78-3.73.41-6.26.65-7.18-.75-.82-1.24-.06-3.23.64-4.32,1.03-1.58,2.41-1.99,5.34-3.26,3.99-1.73,2.47-1.44,7.9-3.87,2.1-.94,3.95-1.69,7.56-3.16,3.43-1.39,7.46-2.99,7.52-3.01.43-.17,2-.83,3.26-2.04.94-.9,1.99-1.9,2.08-3.46.07-1.31-.55-2.8-1.7-3.55-1.31-.86-2.84-.47-5.84.3-1.4.36-1.74.47-5.04,1.65-.83.3-1.86.63-3.19,1.01-1.73.49-9.48,3.22-14.45,4.75-4.17,1.29-5.67,1.32-7.02.65-.3-.15-1.99-1.03-2.13-2.45-.14-1.42,1.34-2.55,3.26-4.11,2.31-1.88,4.45-3.95,6.77-5.82,3.61-2.91,2.51-2.38,7.94-6.97,2.39-2.02,4.57-4.29,6.91-6.37,1.55-1.38,2.72-2.38,2.95-4.04.22-1.59-.48-3.4-1.77-4.4-2.44-1.89-6.21-.27-7.84.44-1.83.79-2.8,1.64-5.17,3.61-4.55,3.77,2.18-2-8.49,6.83-1.45,1.2-4.51,3.74-8.59,6.66-.27.2-2.18,1.72-5.06,2.62-1.9.6-2.77.47-3.25.36-1.45-.36-2.94-1.54-3.33-3.14-.13-.53-.26-1.62,1.27-4.29,1.58-2.76,3.41-4.47,3.74-4.86,2.68-3.14,6.22-7.28,8.69-10.42,2.68-3.4,3.84-4.76,5-6.87,1.66-3,2.84-5.22,1.92-7.24-.83-1.82-3.14-2.95-5.15-2.79-2.42.2-3.87,2.26-5.81,4.71-2.7,3.4-6.03,6.27-8.7,9.7,0,0-7.94,10.21-20.39,22.14,0,0-2.37,2.28-7.13,4.41-2.14.96-3.05,1.07-3.84.75-2.38-.98-2.49-5.42-2.51-6.05-.03-1.09.1-2.08,1.64-6.86,1.76-5.47,2.08-5.69,2.19-7.3.13-1.86.38-5.36-2.12-7.55-2.06-1.81-5.45-2.35-7.62-.97-1.7,1.08-2.04,2.94-2.93,6.98-.83,3.82-1.83,7.6-2.66,11.42Z"/><path class="c" d="m4.98,58.48c2.28,6.89,3.35,11.46,4.23,16.92.99,6.13.7,7.88,2.13,12.86.9,3.12,1.7,5.95,3.55,8.99,4.35,7.16,11.24,10.29,14.14,11.6,3.56,1.61,9.83,3.76,17.69,3.16,2.29-.17,13.66-1.04,21.67-9.44,1.15-1.21.3-.54,8.04-13.61,5.54-9.35,7.59-12.42,10.04-15.63,2.68-3.52,5.21-6.4,6.73-8.06,5.39-5.93,10.28-8.77,11.24-12.16.26-.9.68-2.41-.08-3.96-.09-.19-.92-1.84-2.48-2.2-1.46-.34-2.79.53-6.09,3.31-3.91,3.3-5.03,4.62-7.74,6.64-3.01,2.25-5.05,3.75-6.56,3.01-1.34-.65-1.7-2.75-1.65-4.05.08-1.89,1.06-2.93,2.94-5.52,2.55-3.52,1.39-2.5,4.83-7.36,1.33-1.88,2.54-3.47,4.9-6.57,2.24-2.95,4.9-6.37,4.94-6.42.29-.37,1.3-1.74,1.77-3.41.35-1.26.74-2.65.02-4.04-.61-1.16-1.89-2.13-3.27-2.19-1.56-.07-2.68,1.04-4.88,3.23-1.02,1.02-1.26,1.29-3.5,3.99-.57.68-1.28,1.49-2.23,2.5-1.24,1.31-6.52,7.59-10.01,11.44-2.93,3.23-4.21,4.03-5.71,4.14-.34.02-2.24.13-3.08-1.02-.84-1.15-.14-2.88.71-5.2,1.03-2.79,1.82-5.67,2.86-8.46,1.63-4.34.95-3.33,3.28-10.05,1.03-2.96,1.75-6.02,2.7-9,.64-1.98,1.13-3.43.48-4.98-.62-1.48-2.14-2.68-3.76-2.88-3.06-.38-5.48,2.93-6.53,4.37-1.17,1.61-1.57,2.84-2.61,5.74-1.99,5.56.86-2.83-3.83,10.2-.64,1.77-1.98,5.52-4,10.1-.14.31-1.01,2.59-3.02,4.83-1.33,1.48-2.14,1.82-2.61,1.96-1.43.43-3.31.18-4.46-1-.38-.39-1.05-1.26-1.09-4.34-.04-3.18.66-5.58.75-6.09.71-4.06,1.65-9.44,2.18-13.4.57-4.29.88-6.05.81-8.45-.1-3.43-.21-5.94-2.03-7.21-1.64-1.14-4.21-.94-5.85.22-1.98,1.4-2.18,3.91-2.61,7.01-.59,4.3-2,8.47-2.55,12.78,0,0-1.63,12.83-6.27,29.44,0,0-.88,3.17-3.89,7.43-1.35,1.92-2.08,2.48-2.92,2.6-2.55.37-4.9-3.4-5.24-3.93-.58-.93-.97-1.84-2.08-6.74-1.27-5.6-1.1-5.95-1.83-7.4-.83-1.67-2.4-4.81-5.67-5.42-2.69-.51-5.88.75-7.05,3.05-.91,1.8-.26,3.57,1.03,7.5,1.23,3.71,2.29,7.47,3.52,11.18Z"/><path class="c" d="m39.21,36.16c-3.43,6.39-6.02,10.31-9.37,14.71-3.77,4.93-5.24,5.93-7.87,10.39-1.65,2.8-3.15,5.33-4.09,8.76-2.21,8.09.27,15.23,1.31,18.25,1.28,3.69,4.03,9.72,9.88,15.02,1.71,1.55,10.15,9.2,21.76,9.23,1.67,0,.6-.16,15.41-3.52,10.6-2.41,14.24-3.03,18.26-3.46,4.4-.48,8.23-.62,10.48-.66,8.01-.17,13.44,1.43,16.55-.2.83-.44,2.22-1.17,2.82-2.79.07-.19.7-1.93-.11-3.31-.75-1.29-2.3-1.66-6.59-2.14-5.09-.57-6.81-.48-10.14-1.05-3.7-.63-6.2-1.09-6.7-2.69-.44-1.42.83-3.12,1.81-3.98,1.42-1.24,2.86-1.25,6.03-1.67,4.31-.57,2.77-.71,8.66-1.56,2.28-.33,4.26-.55,8.14-.97,3.68-.4,7.99-.83,8.06-.83.47-.05,2.15-.25,3.69-1.07,1.16-.61,2.44-1.29,2.95-2.76.43-1.24.24-2.84-.66-3.88-1.02-1.19-2.6-1.23-5.7-1.32-1.44-.04-1.81-.02-5.3.21-.88.06-1.96.1-3.35.1-1.8,0-10,.49-15.2.6-4.36.09-5.82-.29-6.93-1.3-.25-.23-1.63-1.54-1.38-2.94.25-1.4,1.99-2.08,4.26-3.06,2.73-1.17,5.36-2.58,8.1-3.74,4.27-1.8,3.07-1.6,9.55-4.52,2.85-1.29,5.57-2.87,8.39-4.23,1.87-.9,3.27-1.54,3.95-3.08.64-1.47.47-3.4-.5-4.72-1.83-2.49-5.89-1.96-7.66-1.73-1.98.26-3.14.81-5.96,2.05-5.41,2.38,2.65-1.33-10.04,4.24-1.72.75-5.37,2.36-10.09,4.04-.32.11-2.57,1.05-5.58,1.13-1.99.05-2.79-.3-3.22-.55-1.29-.74-2.41-2.28-2.34-3.93.02-.55.19-1.63,2.4-3.78,2.28-2.22,4.51-3.36,4.93-3.64,3.44-2.28,7.98-5.3,11.22-7.64,3.51-2.53,5-3.53,6.69-5.23,2.42-2.43,4.17-4.24,3.84-6.43-.3-1.98-2.21-3.7-4.18-4.09-2.38-.47-4.34,1.11-6.88,2.93-3.53,2.53-7.52,4.38-11.03,6.94,0,0-10.43,7.64-25.68,15.7,0,0-2.91,1.54-8.07,2.29-2.32.34-3.23.2-3.9-.33-2.02-1.59-.91-5.9-.75-6.51.27-1.06.67-1.97,3.46-6.15,3.19-4.77,3.56-4.9,4.12-6.42.64-1.75,1.83-5.05.04-7.84-1.48-2.3-4.59-3.75-7.07-3.02-1.93.57-2.77,2.27-4.73,5.91-1.85,3.44-3.85,6.8-5.7,10.25Z"/><path class="b" d="m4.58,20.09c.48.66,5.31-3.2,14.11-6.17,9.75-3.29,17.03-3.02,17.01-3.61-.03-.56-6.66-.91-13.56.15-3.15.48-5.93.93-9.19,2.51-5.08,2.47-8.82,6.49-8.37,7.11Z"/><path class="b" d="m30.7,4.13c-.06.54-4.26.02-10.52,1.36-6.93,1.49-11.18,4.14-11.36,3.8-.18-.32,3.66-2.79,8.13-4.56,2.04-.81,3.85-1.51,6.33-1.73,3.87-.35,7.48.63,7.42,1.13Z"/></svg>